name Walk10.mot
datacolumns 19
datarows 12
range 1.51400000 1.52500000
endheader

                time	   L_ground_force_vx	   L_ground_force_vy	   L_ground_force_vz	   L_ground_force_px	   L_ground_force_py	   L_ground_force_pz	   R_ground_force_vx	   R_ground_force_vy	   R_ground_force_vz	   R_ground_force_px	   R_ground_force_py	   R_ground_force_pz	   L_ground_torque_x	   L_ground_torque_y	   L_ground_torque_z	   R_ground_torque_x	   R_ground_torque_y	   R_ground_torque_z	
          1.51400000	         33.68893263	        636.05185397	         36.58605785	         -0.13327488	          0.00000000	         -0.03970237	          0.00000000	          0.00000000	          0.00000000	          0.00000000	          0.00000000	          0.00000000	          0.00000000	         -1.42288601	          0.00000000	          0.00000000	          0.00000000	          0.00000000	
          1.51500000	         33.45806222	        635.71183262	         36.85240760	         -0.13240158	          0.00000000	         -0.03984074	          0.00000000	          0.00000000	          0.00000000	          0.00000000	          0.00000000	          0.00000000	          0.00000000	         -1.41480677	          0.00000000	          0.00000000	          0.00000000	          0.00000000	
          1.51600000	         33.21277178	        635.39136350	         37.10913395	         -0.13150114	          0.00000000	         -0.03992621	          0.00000000	          0.00000000	          0.00000000	          0.00000000	          0.00000000	          0.00000000	          0.00000000	         -1.40973439	          0.00000000	          0.00000000	          0.00000000	          0.00000000	
          1.51700000	         32.94474132	        635.13070018	         37.35279456	         -0.13057589	          0.00000000	         -0.03996416	          0.00000000	          0.00000000	          0.00000000	          0.00000000	          0.00000000	          0.00000000	          0.00000000	         -1.40317136	          0.00000000	          0.00000000	          0.00000000	          0.00000000	
          1.51800000	         32.65005319	        634.95977826	         37.58812946	         -0.12964866	          0.00000000	         -0.04000939	          0.00000000	          0.00000000	          0.00000000	          0.00000000	          0.00000000	          0.00000000	          0.00000000	         -1.39189638	          0.00000000	          0.00000000	          0.00000000	          0.00000000	
          1.51900000	         32.33918013	        634.88228777	         37.82683072	         -0.12874825	          0.00000000	         -0.04009137	          0.00000000	          0.00000000	          0.00000000	          0.00000000	          0.00000000	          0.00000000	          0.00000000	         -1.37329157	          0.00000000	          0.00000000	          0.00000000	          0.00000000	
          1.52000000	         32.02365791	        634.87934751	         38.07864567	         -0.12787938	          0.00000000	         -0.04017609	          0.00000000	          0.00000000	          0.00000000	          0.00000000	          0.00000000	          0.00000000	          0.00000000	         -1.34454200	          0.00000000	          0.00000000	          0.00000000	          0.00000000	
          1.52100000	         31.70370548	        634.92309212	         38.34071218	         -0.12702552	          0.00000000	         -0.04022166	          0.00000000	          0.00000000	          0.00000000	          0.00000000	          0.00000000	          0.00000000	          0.00000000	         -1.30790964	          0.00000000	          0.00000000	          0.00000000	          0.00000000	
          1.52200000	         31.37942397	        634.97006147	         38.60004569	         -0.12617459	          0.00000000	         -0.04023024	          0.00000000	          0.00000000	          0.00000000	          0.00000000	          0.00000000	          0.00000000	          0.00000000	         -1.27154001	          0.00000000	          0.00000000	          0.00000000	          0.00000000	
          1.52300000	         31.05825375	        634.95209057	         38.84811792	         -0.12532392	          0.00000000	         -0.04023015	          0.00000000	          0.00000000	          0.00000000	          0.00000000	          0.00000000	          0.00000000	          0.00000000	         -1.23905356	          0.00000000	          0.00000000	          0.00000000	          0.00000000	
          1.52400000	         30.74532037	        634.80976664	         39.08879672	         -0.12446586	          0.00000000	         -0.04024788	          0.00000000	          0.00000000	          0.00000000	          0.00000000	          0.00000000	          0.00000000	          0.00000000	         -1.20588316	          0.00000000	          0.00000000	          0.00000000	          0.00000000	
          1.52500000	         30.44431646	        634.54179489	         39.32968663	         -0.12359276	          0.00000000	         -0.04030662	          0.00000000	          0.00000000	          0.00000000	          0.00000000	          0.00000000	          0.00000000	          0.00000000	         -1.17094132	          0.00000000	          0.00000000	          0.00000000	          0.00000000	
